<svg xmlns="http://www.w3.org/2000/svg" height="675.907" width="675.907">
  <path d="M70.885 133.99C183.532-13.51 394.417-41.764 541.917 70.884c147.499 112.647 175.751 323.531 63.104 471.031-112.648 147.499-323.532 175.752-471.03 63.104-147.5-112.648-175.753-323.532-63.106-471.03z" fill="white" stroke="#231f20" stroke-width="3.77937218" stroke-miterlimit="3.864"/>
  <path d="M123.784 219.348s48.235-69.85 56.977-80.464c8.742-10.613 34.178-37.184 35.502-38.085 1.322-.899 14.794-.848 14.794-.848" fill="none" stroke="#231f20" stroke-width="5.6691916" stroke-miterlimit="3.864"/>
  <path d="M213.52 101.89s1.492 3.049 10.159 10.942c8.668 7.893 16.56 15.195 24.532 18.099 7.972 2.904 11.666.629 11.666.629" fill="none" stroke="#231f20" stroke-width="3.77937218" stroke-miterlimit="3.864"/>
  <path d="M223.796 111.01l15.216-21.591 44.95-5.299s6.591-10.299 10.21-7.533c3.621 2.764 1.412 13.225.204 12.302-1.207-.921 3.988-11.058 8.53-9.501 4.543 1.557-1.52 12.896-1.52 12.896s10.467-13.707 13.377-10.847c2.912 2.86-4.696 13.656-4.696 13.656s10.022-14.73 14.448-11.35c4.425 3.378-4.435 15.813-4.435 15.813s7.657 8.444 6.099 12.985c-1.558 4.542-12.735 2.375-17.159-1.005-4.425-3.379-8.83-3.512-10.344-4.03-1.513-.52-23.73 4.262-28.272 2.703-4.543-1.557-10.437-2.238-10.437-2.238l-12.443 20.524" fill="none" stroke="#231f20" stroke-width="3.77937218" stroke-miterlimit="3.864"/>
  <path d="M253.996 116.935s6.395 4.781 12.027 9.082c5.63 4.3 3.181 10.072 3.181 10.072s-39.737 57.871-45.715 67.364c-5.977 9.494-28.341 48.012-28.341 48.012" fill="none" stroke="#231f20" stroke-width="5.6691916" stroke-miterlimit="3.864"/>
  <path d="M134.908 204.823c-1.945-.851-5.004-4.412-10.468-4.764-5.463-.352-13.013.3-10 6.422 3.014 6.123 19.215 24.227 19.215 24.227s-15.574 16.224-19.02 25.739c-3.447 9.516-14.83 32.761-13.682 41.328 1.148 8.565 1.922 11.657 8.762 8.601 6.84-3.056 32.173-32.89 34.06-37.864 1.889-4.975 12.817-26.017 12.817-26.017s23.69 6.629 34.152 8.837c10.46 2.21 38.52.617 38.52.617s-35.012 46.739-41.86 60.711c-6.848 13.97-18.743 41.281-18.743 41.281l-7.11 9.312" fill="none" stroke="#231f20" stroke-width="5.6691916" stroke-miterlimit="3.864"/>
  <path d="M114.747 206.079s-7.966 29.674-13.328 38.364c-5.363 8.689-18.364 44.12-18.753 54.697-.388 10.579-8.13 31.556-3.032 42.455 5.098 10.898 10.283 17.453 11.285 22.04 1.002 4.586-.103 15.206 2.347 25.404 2.45 10.197 3.861 25.924 10.567 35.55 6.706 9.627 22.203 36.159 29.452 44.242 7.248 8.082 19.382 23.174 29.299 29.429 9.92 6.255 28.68 21.903 28.68 21.903s-3.26-37.612 4.89-49.952c8.15-12.34 9.9-39.71 12.073-42.556 2.173-2.846 8.158-25.755 8.158-25.755l1.779-19.068" fill="none" stroke="#231f20" stroke-width="5.6691916" stroke-miterlimit="3.864"/>
  <path d="M193.897 439.687s12.671-32.499 16.922-41.4c4.252-8.903 19.921-40.384 26.614-47.42 6.695-7.035 39.444-49.084 44.266-53.73 4.821-4.644 18.932-15.614 18.361-19.872-.57-4.257-3.773-11.798-3.773-11.798" fill="none" stroke="#231f20" stroke-width="5.6691916" stroke-linecap="round" stroke-miterlimit="3.864"/>
  <path d="M269.013 226.71s-3.46-3.869-8.829-3.511c-5.368.358-31.77 30.697-31.77 30.697" fill="none" stroke="#231f20" stroke-width="5.6691916" stroke-miterlimit="3.864"/>
  <path d="M260.528 233.652c1.397 2.341.035 14.132 6.055 23.824 6.018 9.692 24.53 18.099 24.53 18.099" fill="none" stroke="#231f20" stroke-width="5.6691916" stroke-linecap="round" stroke-miterlimit="3.864"/>
  <path d="M265.061 248.625c-2.222-.424 5.216-6.89 4.434-10.037-.783-3.144-1.594-14.59 1.289-17.53 2.883-2.942 8.12-12.363 8.12-12.363s-1.484-16.466-1.959-20.012c-.474-3.547 3.468-12.047 5.172-10.108 1.704 1.937.387 11.168 3.708 16.889 3.32 5.72 8.644 10.424 7.979 5.457-.665-4.966-.824-19.83.523-23.26 1.345-3.43 3.869-11.74 6.378-9.188 2.508 2.554 6.412 20.915 5.162 25.054-1.251 4.14-3.578 16.421-.455 18.169 3.124 1.75 7.975-5.373 7.916-11.197-.059-5.823 4.448-23.399 6.197-24.022 1.75-.621 3.892-3.49 6.694 1.244 2.8 4.734.05 21.739-2.028 25.295-2.079 3.555-4.56 15.081-1.715 17.255 2.845 2.173 10.907-5.047 10.95-7.606.046-2.561 1.76-14.037 1.07-16.473-.687-2.436 1.627-9.633 4.252-8.901 2.625.732 7.576 13.429 7.943 18.849.364 5.421-7.734 26.032-11.539 30.18-3.804 4.148-24.944 19.256-28.324 21.18-3.38 1.925-22.89 13.232-22.89 13.232" fill="none" stroke="#231f20" stroke-width="3.77937218" stroke-miterlimit="3.864"/>
  <path d="M86.268 350.483s38.208-31.56 58.835-34.323c20.628-2.764 42.696-5.747 42.696-5.747l-7.478 19.859s-23.209 5.25-31.248 7.436c-8.038 2.187-41.55 20.092-46.136 23.595-4.586 3.502-10.87 13.398-10.87 13.398l-5.799-24.218" fill="#231f20" fill-rule="evenodd"/>
  <path d="M86.268 350.483s38.208-31.56 58.835-34.323c20.628-2.764 42.696-5.747 42.696-5.747l-7.478 19.859s-23.209 5.25-31.248 7.436c-8.038 2.187-41.55 20.092-46.136 23.595-4.586 3.502-10.87 13.398-10.87 13.398z" fill="none" stroke="#231f20" stroke-width="3.77937218" stroke-miterlimit="3.864"/>
  <path d="M233.227 354.708s5.88 14.043 7.028 22.61c1.148 8.566-.792 32.017-.792 32.017M243.6 342.792s7.27 5.552 11.636 16.577c4.367 11.023 2.975 17.014 5.448 27.182 2.472 10.168 1.067 21.242 1.067 21.242" fill="none" stroke="#231f20" stroke-width="5.6691916" stroke-miterlimit="3.864"/>
  <path d="M224.752 418.527s15.844-11.511 28.835-9.279c12.99 2.23 22.157 2.861 28.497 7.068 6.341 4.205 9.297 4.505 9.297 4.505" fill="none" stroke="#231f20" stroke-width="5.6691916" stroke-linecap="round" stroke-miterlimit="3.864"/>
  <path d="M267.543 429.459s10.721 1.866 14.504.249c3.781-1.616 7.85-9.383 11.894-8.843 4.046.543 17.416 3.111 15.902 2.592-1.514-.518-5.187 17.692-4.734 21.271.452 3.576.408 8.637.408 8.637" fill="none" stroke="#231f20" stroke-width="5.6691916" stroke-linecap="round" stroke-linejoin="round" stroke-miterlimit="3.864"/>
  <path d="M280.059 495.936s4.141-22.997 14.588-31.672c10.446-8.675 18.961-15.593 32.097-9.383 13.137 6.211 11.184 10.499 12.345 16.483 1.163 5.983-13.841 23.961-19.421 25.432-5.581 1.468-17.57 12.103-17.57 12.103" fill="none" stroke="#231f20" stroke-width="5.6691916" stroke-linecap="round" stroke-miterlimit="3.864"/>
  <path d="M263.667 500.659l10.181 8.413-11.435 17.473" fill="none" stroke="#231f20" stroke-width="3.77937218" stroke-linecap="round" stroke-miterlimit="3.864"/>
  <path d="M258.75 504.595s5.378 4.697 8.31 5.025c2.933.33 6.079-.452 6.079-.452M257.813 516.664c3.528-.6 16.484-4.277 14.954-4.745M259.563 491.795s4.214-1.287 6.722 1.265c2.51 2.553 3.694 6.005 3.694 6.005M259.959 483.77c-1.323.9-5.032 5.757-5.032 5.757M277.364 524.543l-5.267 9.398M299.37 520.873s6.955 5.902 4.92 4.396" fill="none" stroke="#231f20" stroke-width="3.77937218" stroke-miterlimit="3.864"/>
  <path d="M310.07 503.525c-1.85-.141 2.267 6.14 2.326 11.964.057 5.824-5.21 15.223-5.21 15.223" fill="none" stroke="#231f20" stroke-width="5.6691916" stroke-miterlimit="3.864"/>
  <path d="M191.125 524.515s-8.617-2.123-7.409-1.202c1.207.923 3.085 6.863 3.085 6.863s-8.5-3.943-7.197-2.313c1.301 1.632 6.041 7.162 6.041 7.162l1.192 6.006 7.015 9.225 1.067 5.273s11.908 7.82 10.086 7.703c-1.821-.117 1.712 4.492 1.712 4.492s12.88 4.105 11.031 3.965c-1.852-.14 11.527 4.982 11.527 4.982l13.584 3.96 14.409 2.04 10.597-4.643s14.383-6.26 19.583-8.067c5.201-1.806 14.207-10.262 14.207-10.262s10.401-6.115 10.518-7.937c.118-1.82 18.442-16.578 17.543-17.902-.9-1.325 8.705-21.468 7.38-20.57-1.321.9-10.657 12.289-10.657 12.289l4.076-15.404-9.006 8.454s-5.821-5.72-4.117-3.781c1.704 1.937-.828 7.693-.725 10.956.102 3.264-4.726 5.355-4.726 5.355l-6.246-3.498s-5.698 3.292-4.704 5.326c.996 2.033-4.052-3.095-4.052-3.095s-2.004 9.296-4.272 11.432c-2.268 2.136-12.291 11.09-12.291 11.09l6.212-13.138s-10.052 8.93-13.101 10.421c-3.051 1.494-11.799 3.774-11.799 3.774s11.397-12.359 7.82-11.907c-3.577.453-10.835 5.785-11.66 7.701-.827 1.916-9.977 3.891-9.056 2.684.921-1.206 5.327-17.042 5.21-15.221-.118 1.82-10.162 10.803-10.162 10.803s6.167-8.075 4.156-9.612c-2.012-1.535-4.344-13.555-4.344-13.555l.25-6.225-2.92 10.556s-4.154-14.636-3.16-12.603c.995 2.033-3.709 7.357-3.709 7.357l-1.712 11.476s-8.873 4.052-9.532 7.418c-.658 3.364-4.44 9.982-6.781 8.88-2.341-1.104-6.532.152-10.767-1.808-4.234-1.961-5.641-9.356-6.517-10.708l-7.679-14.192" fill="#231f20"/>
  <path d="M191.125 524.515s-8.617-2.123-7.409-1.202c1.207.923 3.085 6.863 3.085 6.863s-8.5-3.943-7.197-2.313c1.301 1.632 6.041 7.162 6.041 7.162l1.192 6.006 7.015 9.225 1.067 5.273s11.908 7.82 10.086 7.703c-1.821-.117 1.712 4.492 1.712 4.492s12.88 4.105 11.031 3.965c-1.852-.14 11.527 4.982 11.527 4.982l13.584 3.96 14.409 2.04 10.597-4.643s14.383-6.26 19.583-8.067c5.201-1.806 14.207-10.262 14.207-10.262s10.401-6.115 10.518-7.937c.118-1.82 18.442-16.578 17.543-17.902-.9-1.325 8.705-21.468 7.38-20.57-1.321.9-10.657 12.289-10.657 12.289l4.076-15.404-9.006 8.454s-5.821-5.72-4.117-3.781c1.704 1.937-.828 7.693-.725 10.956.102 3.264-4.726 5.355-4.726 5.355l-6.246-3.498s-5.698 3.292-4.704 5.326c.996 2.033-4.052-3.095-4.052-3.095s-2.004 9.296-4.272 11.432c-2.268 2.136-12.291 11.09-12.291 11.09l6.212-13.138s-10.052 8.93-13.101 10.421c-3.051 1.494-11.799 3.774-11.799 3.774s11.397-12.359 7.82-11.907c-3.577.453-10.835 5.785-11.66 7.701-.827 1.916-9.977 3.891-9.056 2.684.921-1.206 5.327-17.042 5.21-15.221-.118 1.82-10.162 10.803-10.162 10.803s6.167-8.075 4.156-9.612c-2.012-1.535-4.344-13.555-4.344-13.555l.25-6.225-2.92 10.556s-4.154-14.636-3.16-12.603c.995 2.033-3.709 7.357-3.709 7.357l-1.712 11.476s-8.873 4.052-9.532 7.418c-.658 3.364-4.44 9.982-6.781 8.88-2.341-1.104-6.532.152-10.767-1.808-4.234-1.961-5.641-9.356-6.517-10.708z" fill="none" stroke="#231f20" stroke-width="3.77937218" stroke-miterlimit="3.864"/>
  <path d="M207.023 497.027s-1.902-3.408-7.718-.798c-5.816 2.612-7.462 14.775-7.462 14.775M213.635 508.447c-1.207-.922-7.646-.06-8.378 2.566-.73 2.624-1.88 7.527.936 9.679 2.816 2.15 7.082 4.132 7.98 5.455" fill="none" stroke="#231f20" stroke-width="5.6691916" stroke-linecap="round" stroke-miterlimit="3.864"/>
  <path d="M217.684 517.319c-3.356 1.893-4.41 7.505-4.41 7.505s1.587 3.76.855 6.384c-.732 2.627-2.524 8.312-2.524 8.312s9.262-12.128 10.586-13.028c1.324-.9 2.786-6.15 1.177-7.381-1.61-1.228-5.684-1.792-5.684-1.792" fill="#231f20" fill-rule="evenodd"/>
  <path d="M217.684 517.319c-3.356 1.893-4.41 7.505-4.41 7.505s1.587 3.76.855 6.384c-.732 2.627-2.524 8.312-2.524 8.312s9.262-12.128 10.586-13.028c1.324-.9 2.786-6.15 1.177-7.381-1.61-1.228-5.684-1.792-5.684-1.792z" fill="none" stroke="#231f20" stroke-width="3.77937218" stroke-miterlimit="3.864"/>
  <path d="M293.63 129.29s-7.569-4.842-11.94-1.938c-4.371 2.903-9.377 23.27-13.906 31.08-4.528 7.81-30.367 48.224-36.148 55.795-5.781 7.57-31.068 36.918-31.068 36.918" fill="none" stroke="#231f20" stroke-width="5.6691916" stroke-miterlimit="3.864"/>
  <path d="M284.543 136.49s-2.4.32 9.945 8.313c12.344 7.992 35.13 8.602 35.13 8.602" fill="none" stroke="#231f20" stroke-width="5.6691916" stroke-linecap="round" stroke-miterlimit="3.864"/>
  <path d="M323.83 139.65s14.365 8.818 15.486 11.11c1.121 2.293-17.387 25.613-17.387 25.613" fill="none" stroke="#231f20" stroke-width="5.6691916" stroke-miterlimit="3.864"/>
  <path d="M293.152 140.912s5.97-13.17 6.82-18.045c.852-4.875 8.125-13.459 8.125-13.459M315.919 152.316l.645-2.764s3.35-6.304 4.297-8.187c.948-1.88 2.647-4.114 6.804-8.616 4.158-4.504 14.252-13.308 20.89-14.48 6.638-1.172 28.441-12.8 34.117-12.056 5.673.744 12.841 1.411 16.495 1.33 3.652-.083 9.861-5.392 10.472-9.014.612-3.621-1.064-5.838-5.516-5.649-4.454.19-9.995 6.507-9.995 6.507s8.519-10.504 4.552-10.663c-3.968-.157-11.43 3.975-11.43 3.975l-4.61 5.094s10.012-11.517 5.485-12.822c-4.529-1.304-5.353 1.656-5.353 1.656l-9.221 8.313s9.322-9.672 5.485-11.884c-3.835-2.21-6.367-.775-6.367-.775s-7.112 9.132-4.821 5.754c2.29-3.379-2.376 2.414-3.253 2.938-2.638 1.574-8.104.272-8.104.272s12.386-8.988 8.552-11.198c-3.836-2.212-8.635-2.507-11.622-.479-2.984 2.028-6.232 8.163-6.232 8.163s5.202-3.706-.744-3.44c-5.945.264-20.016 5.813-20.016 5.813M311.51 119.692c-2.291 1.121-5.245 11.57-5.245 11.57M245.753 98.47s-7.3 1.385-8.924 4.451c-1.625 3.068-4.076 8.158-4.076 8.158" fill="none" stroke="#231f20" stroke-width="3.77937218" stroke-miterlimit="3.864"/>
  <path d="M222.584 164.895l-19.877 15.033M207.69 182.517l-16.998 22.258" fill="none" stroke="#231f20" stroke-width="1.13383832" stroke-miterlimit="3.864"/>
  <path d="M198.935 128.387l-10.606 11.065" fill="none" stroke="#231f20" stroke-width=".9999750000000001" stroke-miterlimit="3.864"/>
  <path d="M257.91 197.397l-13.378 13.756M210.344 336.27c-3.168-.266-5.296 8.16-11.373 10.48-6.079 2.317-15.431 13.622-15.431 13.622M240.33 326.803s-5.04 1.896-9.089 7.198c-4.049 5.303-13.854 16.263-13.854 16.263M188.975 362.37c-2.26.427-7.483 8.205-12.999 12.607-5.516 4.403-10.737 13.119-10.737 13.119M164.464 376.237s-3.068 6.551-6.77 12.339c-3.702 5.787-10.014 20.632-10.014 20.632M93.529 327.585s.938 9.114 2.695 14.046c1.758 4.932 6.72 20.708 6.003 24.468-.718 3.76 2.028 21.212 2.028 21.212M142.333 355.027s8.508-3.334 12.583-2.376c4.075.958 12.74 1.833 12.74 1.833" fill="none" stroke="#231f20" stroke-width="1.13383832" stroke-miterlimit="3.864"/>
  <path d="M396.516 162.795s-15.747 12.444-21.237 13.994c-5.492 1.55-15.751 12.162-17.426 19.996-1.676 7.835 5.844 19.323 13.894 22.598 8.048 3.274 20.625-1.26 28.328-6.646 7.701-5.384 13.294-26.521 13.294-26.521" fill="none" stroke="#231f20" stroke-width="5.6691916" stroke-miterlimit="3.864"/>
  <path d="M385.645 167.915c-2.506-.479.736-7.832 1.14-11.834.403-4 4.478-12.156 4.478-12.156" fill="none" stroke="#231f20" stroke-width="3.77937218" stroke-miterlimit="3.864"/>
  <path d="M501.85 161.992s-1.345-6.99-3.554-11.33c-2.21-4.338-8.4-14.093-12.823-14.598-4.42-.504-6.07 4.477-8.256 6.399-2.185 1.92-7.646 10.952-9.832 12.873-2.185 1.92-2.53 11.488-2.53 11.488l-6.104-3.943-2.687 7.28s-3.524-12.961-4.857-15.914c-1.335-2.954-5.335-12.471-5.335-12.471s7.216-15.09 5.032-13.168c-2.185 1.921-11.19 12.773-11.19 12.773s7.271-18.636 5.087-16.716c-2.185 1.922-6.498 11.331-6.498 11.331l1.962-14.795-8.866 10.958s5.856-16.128 3.672-14.207c-2.186 1.921-10.63 13.919-10.63 13.919l-.857-6.398-5.568 9.17-3.81-5.064-5.009 10.316s1.784-7.035-.722-7.515c-2.506-.477-4.927 13.032-4.927 13.032l2.313-14.308-7.242 7.89-4.932 1.757 2.236-6.688-12.016 14.794s3.961-11.114 2.261-9.541c-1.7 1.573-12.092 13.3-12.092 13.3l5.964-14.39-12.445 11.595s4.025-11.564 7.142-15.645c3.116-4.081 18.488-15.096 24.459-18.213 5.972-3.119 18.46-13.464 28.51-13.466 10.054-.001 23.62-.19 31.215 2.738 7.595 2.929 18.226 8.177 24.922 12.572 6.693 4.394 13.44 13.136 17.704 18.546 4.262 5.411 9.257 10.44 9.201 13.987-.056 3.548-2.563 3.07-1.443 5.361 1.122 2.292 5.599 8.363 5.599 8.363l-8.552-7.967-4.503 5.895" fill="#231f20" fill-rule="evenodd"/>
  <path d="M501.85 161.992s-1.345-6.99-3.554-11.33c-2.21-4.338-8.4-14.093-12.823-14.598-4.42-.504-6.07 4.477-8.256 6.399-2.185 1.92-7.646 10.952-9.832 12.873-2.185 1.92-2.53 11.488-2.53 11.488l-6.104-3.943-2.687 7.28s-3.524-12.961-4.857-15.914c-1.335-2.954-5.335-12.471-5.335-12.471s7.216-15.09 5.032-13.168c-2.185 1.921-11.19 12.773-11.19 12.773s7.271-18.636 5.087-16.716c-2.185 1.922-6.498 11.331-6.498 11.331l1.962-14.795-8.866 10.958s5.856-16.128 3.672-14.207c-2.186 1.921-10.63 13.919-10.63 13.919l-.857-6.398-5.568 9.17-3.81-5.064-5.009 10.316s1.784-7.035-.722-7.515c-2.506-.477-4.927 13.032-4.927 13.032l2.313-14.308-7.242 7.89-4.932 1.757 2.236-6.688-12.016 14.794s3.961-11.114 2.261-9.541c-1.7 1.573-12.092 13.3-12.092 13.3l5.964-14.39-12.445 11.595s4.025-11.564 7.142-15.645c3.116-4.081 18.488-15.096 24.459-18.213 5.972-3.119 18.46-13.464 28.51-13.466 10.054-.001 23.62-.19 31.215 2.738 7.595 2.929 18.226 8.177 24.922 12.572 6.693 4.394 13.44 13.136 17.704 18.546 4.262 5.411 9.257 10.44 9.201 13.987-.056 3.548-2.563 3.07-1.443 5.361 1.122 2.292 5.599 8.363 5.599 8.363l-8.552-7.967z" fill="none" stroke="#231f20" stroke-width="3.77937218" stroke-miterlimit="3.864"/>
  <path d="M415.303 143.837c-2.163-.932 5.68-6.212 9.169-3.546 3.49 2.664 2.664 5.625 2.664 5.625" fill="none" stroke="#231f20" stroke-width="3.77937218" stroke-linecap="round" stroke-miterlimit="3.864"/>
  <path d="M420.824 160.759s-.872 8.665 5.015 11.009c5.888 2.343 11.694-8.08 11.694-8.08" fill="none" stroke="#231f20" stroke-width="5.6691916" stroke-linecap="round" stroke-miterlimit="3.864"/>
  <path d="M423.68 179.95s-.027 2.853 4.32 1.863c4.344-.989 7.677-2.532 7.677-2.532M429.788 186.052s5.65 3.596 6.927.983c1.28-2.615 2.69-6.342 2.69-6.342" fill="none" stroke="#231f20" stroke-width="1.88968609" stroke-miterlimit="3.864"/>
  <path d="M471.707 167.25s6.236-7.223 6.845-11.782c.61-4.56 9.221-9.252 9.221-9.252" fill="none" stroke="#231f20" stroke-width="5.6691916" stroke-linecap="round" stroke-miterlimit="3.864"/>
  <path d="M477.968 157.175s11.003 2.88 11.405 7.992c.402 5.113-8.124 13.46-8.124 13.46" fill="none" stroke="#231f20" stroke-width="5.6691916" stroke-miterlimit="3.864"/>
  <path d="M484.448 188.25s7.704 4.666 12.66-.882c4.956-5.55 6.177-22.843 6.177-22.843" fill="none" stroke="#231f20" stroke-width="5.6691916" stroke-linecap="round" stroke-miterlimit="3.864"/>
  <path d="M386.565 219.432s-3.065 8.428-4.394 15.81c-1.33 7.38-3.376 18.52-3.376 18.52s9.278-2.747 14.844-2.803c5.566-.055 13.749-7.01 18.012-11.651 4.264-4.643 5.296-17.275 5.296-17.275" fill="none" stroke="#231f20" stroke-width="5.6691916" stroke-linecap="round" stroke-linejoin="round" stroke-miterlimit="3.864"/>
  <path d="M392.147 251.973s7.784 7.382 16.178 10.203c8.396 2.823 18.768 4.281 26.175 3.696 7.408-.585 25.74-10.776 25.74-10.776" fill="none" stroke="#231f20" stroke-width="5.6691916" stroke-linecap="round" stroke-miterlimit="3.864"/>
  <path d="M458.035 280.256s16.489-19.995 22.937-34.732c6.45-14.739 18.775-59.73 18.775-59.73M502.897 165.787s12.252 8.297 32.408 30.869c20.155 22.572 32.767 36.792 42.714 55.156 9.945 18.365 10.077 35.479 10.67 45.044.591 9.565-1.89 15.35.912 21.08 2.804 5.73 7.684 17.853 7.684 17.853s-2.392 21.647-.496 35.798c1.896 14.152-9.428 46.266-10.17 52.88-.743 6.613-9.132 24.176-9.132 24.176s-11.866-1.384-18.447-2.82c-6.581-1.436-9.676-1.147-9.676-1.147s16.812-16.656 18.544-28.039c1.73-11.381 4.312-28.574.23-31.692-4.08-3.116-14.153.959-20.12 5.015-5.971 4.056-17.213 20.657-20.223 25.539-3.01 4.881-7.695 17.596-7.695 17.596l-15.652-9.302M381.344 237.263s-20.62 21.645-24.404 23.781c-3.784 2.135-23.13 19.947-26.833 24.796-3.704 4.85-10.55 16.632-14.626 24.788-4.074 8.156-2.121 18.761-3.002 25.268-.882 6.507 3.018 26.496 1.474 32.277-1.542 5.78-1.65 14.095-3.036 15.91-1.386 1.813 12.955 4.369 12.955 4.369" fill="none" stroke="#231f20" stroke-width="5.6691916" stroke-miterlimit="3.864"/>
  <path d="M426.156 267.397s-5.03 4.055-3.299 10.902a179.351 179.351 0 0 0 3.734 12.684M440.2 264.701l.032 8.42 2.77 6.424" fill="none" stroke="#231f20" stroke-width="3.77937218" stroke-miterlimit="3.864"/>
  <path d="M424.324 280.137s-14.847 10.978-20.71 15.834c-5.862 4.857-15.98 15.574-18.991 19.517-3.012 3.943-9.542 15.967-9.542 15.967" fill="none" stroke="#231f20" stroke-width="5.6691916" stroke-miterlimit="3.864"/>
  <path d="M378.75 308.135s-7.267 9.804-6.68 18.149c.586 8.345 11.015 34.537 11.015 34.537l-13.112 10.588" fill="none" stroke="#231f20" stroke-width="5.6691916" stroke-linecap="round" stroke-miterlimit="3.864"/>
  <path d="M314.404 376.75s15.481-18.446 22.252-21.67c6.77-3.227 10.125-9.499 17.615-6.432 7.489 3.068 17.353 7.728 17.353 7.728" fill="none" stroke="#231f20" stroke-width="5.6691916" stroke-linecap="round" stroke-miterlimit="3.864"/>
  <path d="M362.775 353.208s-1.676 7.835 3.842 13.484c5.518 5.65 8.048 12.39 12.69 16.652 4.641 4.263 11.758 9.697 11.758 9.697s.431 4.139-3.917 4.19c-4.345.05-7.992 2.292-13.327-1.064-5.334-3.356-11.757-9.699-11.757-9.699s1.812 10.5 4.056 15.084c2.241 4.584 3.979 13.59 4.723 17.03.742 3.438-.875 7.726-4.636 7.009-3.759-.718-6.53-6.204-8.211-9.643-1.683-3.437-4.163-15.883-4.163-15.883s7.386 21.716 6.67 25.475c-.719 3.761.804 11.167-3.195 11.703-3.999.534-8.633-1.57-8.608-4.423.024-2.852-4.543-24.787-4.543-24.787s3.876 23.78 1.558 26.815c-2.318 3.036-4.635 7.01-7.916 3.788-3.282-3.225-1.69-14.713-3.231-18.044-1.544-3.333.263-13.22.263-13.22s-3.3 20.015-5.724 23.19c-2.424 3.174-7.566 4.551-7.3 1.385.266-3.17-1.738-18.12-.352-19.934 1.385-1.814 3.426-33.341 3.426-33.341l1.008-16.261" fill="none" stroke="#231f20" stroke-width="3.77937218" stroke-miterlimit="3.864"/>
  <path d="M280.74 415.296s13.399-5.199 19.232-8.423c5.833-3.222 23.208-17.514 23.208-17.514" fill="none" stroke="#231f20" stroke-width="5.6691916" stroke-miterlimit="3.864"/>
  <path d="M414.72 321.279l-14.455-8.7s-9.59 11.62-11.324 13.886c-1.73 2.268-10.656 15.835-10.656 15.835" fill="none" stroke="#231f20" stroke-width="5.6691916" stroke-linecap="round" stroke-miterlimit="3.864"/>
  <path d="M407.413 335.548s4.663-8.925 7.326-13.352c2.664-4.428 9.558-31.03 13.129-33.827 3.573-2.796 10.255-11.833 15.16-11.676 4.907.158 13.005-1.336 15.833 1.542 2.83 2.878-9.773 19.378-9.773 19.378s11.448-18.098 15.984-14.636c4.535 3.464 6.53 6.204 5.465 10.418-1.064 4.213-9.269 14.957-9.269 14.957s7.172-8.163 9.168-4.484c1.997 3.679-1.624 12.18-1.781 17.087-.156 4.905-1.912 10.025-4.231 13.061-2.319 3.035-11.216 15.625-18.308 16.45-7.092.826-15.935 8.931-15.935 8.931" fill="none" stroke="#231f20" stroke-width="3.77937218" stroke-linecap="round" stroke-miterlimit="3.864"/>
  <path d="M404.264 321.157s.377 18.018 3.95 24.336c3.571 6.316 9.755 12.035 13.169 14.144 3.414 2.111 9.757 4.799 9.757 4.799" fill="none" stroke="#231f20" stroke-width="5.6691916" stroke-linecap="round" stroke-miterlimit="3.864"/>
  <path d="M434.473 355.12s2.643 7.419 4.879 9.844c2.235 2.425 2.312 4.859-1.788 5.815-4.1.956-12.52 11.04-15.745 13.382-3.226 2.343-12.444 12.534-16.362 15.783-3.918 3.25-29.493 29.508-32.05 34.735-2.555 5.226-12.684 12.848-16.816 15.436-4.13 2.589-17.904 12.452-17.904 12.452" fill="none" stroke="#231f20" stroke-width="5.6691916" stroke-miterlimit="3.864"/>
  <path d="M492.675 239.603s-3.622 9.44-7.326 14.289c-3.702 4.85-18.892 27.272-18.892 27.272" fill="none" stroke="#231f20" stroke-width="3.77937218" stroke-linecap="round" stroke-miterlimit="3.864"/>
  <path d="M486.792 267.697s-11.724 27.94-10.095 36.146c1.632 8.206-6.245 33.56-6.089 37.768.156 4.208-2.813 20.606-3.91 24.574-1.097 3.97-6.342 15.539-6.342 15.539s2.103 3.54-6.317 3.572c-8.42.03-19.288 6.09-23.875 7.393-4.584 1.304-12.256 5.995-15.35 7.223-3.09 1.228-3.47 1.437-4.451 9.304-.983 7.865-5.455 11.19-6.922 19.404-1.466 8.212-1.838 11.519-3.941 16.155-2.104 4.634.27 7.165-1.116 8.978-1.384 1.815 9.724 4.555 17.88-.484 8.156-5.038 24.527-8.61 31.239-9.228 6.713-.616 26.998-9.316 31.9-10.378 4.9-1.066 13.538-7.388 21.637-8.882 8.1-1.49 12.79-12.986 14.79-18.421 1.995-5.435 12.997-31.775 15.233-38.463 2.236-6.688 5.404-24.649 8.413-29.53 3.01-4.882 7.985-23.618 7.985-23.618l2.079-11.833" fill="none" stroke="#231f20" stroke-width="5.6691916" stroke-linecap="round" stroke-miterlimit="3.864"/>
  <path d="M399.473 437.576s-9.308 3.439-14.768 4.295c-5.458.857-16.173 1.07-16.173 1.07M409.11 408.976l-9.755-3.861M445.77 360.033s5.843.156 7.494 4.288c1.65 4.134.372 5.808-.108 8.315-.477 2.505-5.007 10.316-5.007 10.316" fill="none" stroke="#231f20" stroke-width="3.77937218" stroke-miterlimit="3.864"/>
  <path d="M458.453 347.187s-2.929 6.656-3.433 12.014c-.503 5.36-3.84 5.683-.105 9.254 3.734 3.569 9.409 4.313 9.409 4.313" fill="none" stroke="#231f20" stroke-width="3.77937218" stroke-miterlimit="3.864"/>
  <path d="M460.224 383.776s-9.164 14.82-10.55 16.635M463.5 375.728c1.813 1.385-2.161 9.12-.504 14.473 1.655 5.354 1.605 11.059 1.605 11.059M461.237 385.27l-2.153 19.454" fill="none" stroke="#231f20" stroke-width="3.77937218" stroke-linecap="round" stroke-miterlimit="3.864"/>
  <path d="M404.727 456.444s-16.002 29.7-19.736 35.243c-3.736 5.544-8.018 24.31-13.642 26.976-5.625 2.664-6.986 10.74-3.597 14.762 3.388 4.023 22.239 11.959 28.953 12.279 6.714.322 24.223 3.144 27.423 2.715 3.197-.427 19.881-4.699 19.881-4.699s16.092-32.063 17.824-34.33c1.731-2.267 19.242-26.863 19.242-26.863" fill="none" stroke="#231f20" stroke-width="5.6691916" stroke-miterlimit="3.864"/>
  <path d="M401.712 545.442l-10.201 16.178-4.05 5.303s-5.569-.881-11.621-.479c-6.052.404-16.23 4.618-19.428 5.047-3.2.428-9.353 1.252-11.86.773-2.507-.477-7.733-3.033-12.37-5.138-4.634-2.103-7.543-7.695-11.914-4.791-4.372 2.902-6.101 6.108-4.207 10.208.951 2.06 7.112 2.325 4.228 6.088-2.882 3.764 1.742-.094 1.742-.094s9.812.317 7.997-1.069c-1.813-1.385-16.127 4.194-14.23 8.294 1.893 4.1 6.24 4.049 6.24 4.049l6.505-5.206 8.736-3.756" fill="none" stroke="#231f20" stroke-width="3.77937218" stroke-linecap="round" stroke-miterlimit="3.864"/>
  <path d="M322.384 589.359s-.51 3.2 1.65 4.132c2.16.93 4.56.609 6.745-1.31 2.185-1.922 9.51-6.16 9.51-6.16M326.515 595.881s3.968 1.098 6.236 2.83 7.652-.619 7.652-.619l5.434-7.118" fill="none" stroke="#231f20" stroke-width="3.77937218" stroke-linecap="round" stroke-miterlimit="3.864"/>
  <path d="M338.595 598.148l16.386 1.248c5.222.397 20.446-2.615 27.051-4.032 6.607-1.416 14.207-6.381 21.028-5.259 6.821 1.121 11.91-5.541 15.457-6.424 3.544-.881 7.991-12.344 8.923-14.504.93-2.158-1.33-10.846 1.17-12.528 2.5-1.678 9.247-11.166 9.247-11.166" fill="none" stroke="#231f20" stroke-width="3.77937218" stroke-miterlimit="3.864"/>
  <path d="M419.707 557.028s-5.279 2.212-4.743 6.21c.536 4 1.176 7.86-1.568 8.634" fill="none" stroke="#231f20" stroke-width="3.77937218" stroke-linecap="round" stroke-miterlimit="3.864"/>
  <path d="M563.253 446.887s-30.218 12.878-35.256 14.774c-5.037 1.898-37.334 16.559-41.573 18.348-4.237 1.788-10.315 5.046-14.577 8.748-4.264 3.704-24.544 13.623-24.544 13.623" fill="none" stroke="#231f20" stroke-width="5.6691916" stroke-linecap="round" stroke-miterlimit="3.864"/>
  <path d="M528.452 462.01s12.897 6.977 12.073 9.938c-.825 2.96-1.645 7.139.138 9.219 1.782 2.08-4.29 6.556-10.579 8.212-6.292 1.657-25.244 12.372-29.212 12.213-3.967-.159-17.859 6.464-20.705 7.659-2.85 1.197-7.17-.667-7.17-.667l-3.066-10.739" fill="none" stroke="#231f20" stroke-width="5.6691916" stroke-miterlimit="3.864"/>
  <path d="M532.481 489.059s6.028 2.449 7.678 6.58c1.65 4.133 3.68 8.056 2.401 9.73-1.28 1.676-6.13 7.087-9.461 9.568-3.331 2.482-14.359 11.57-19.29 14.264-4.93 2.696-18.201 7.2-22.093 8.536-3.892 1.335-8.799.24-9.624 3.199-.824 2.961-8.897 11.65-8.897 11.65l-4.266-5.407 3.038-6.796" fill="none" stroke="#231f20" stroke-width="3.77937218" stroke-linecap="round" stroke-linejoin="round" stroke-miterlimit="3.864"/>
  <path d="M469.036 547.977s-5.937 3.363-7.059 1.07c-1.12-2.29 1.543-6.719 1.543-6.719l3.383-7.248M462.136 544.141s-5.152-1.06-6.135-3.248c-.982-2.186 4.93-11.81 4.93-11.81" fill="none" stroke="#231f20" stroke-width="3.77937218" stroke-linecap="round" stroke-miterlimit="3.864"/>
  <path d="M456.232 538.219l-5.856-3.776M456.941 518.316s16.406-.133 20.511.13 24.367-4.643 26.412-6.671c2.048-2.027 9.94-2.959 9.94-2.959l-8.907-9.675" fill="none" stroke="#231f20" stroke-width="3.77937218" stroke-miterlimit="3.864"/>
  <path d="M524.695 386.288s28.674-7.097 34.67-13.068c5.996-5.97 35.331-41.561 35.331-41.561l-6.216-25.13s-10.093 17.918-13.319 20.26c-3.226 2.344-17.717 25.08-23.661 26.283-5.945 1.204-18.093 8.937-18.093 8.937l-8.712 24.279" fill="#231f20" fill-rule="evenodd"/>
  <path d="M524.695 386.288s28.674-7.097 34.67-13.068c5.996-5.97 35.331-41.561 35.331-41.561l-6.216-25.13s-10.093 17.918-13.319 20.26c-3.226 2.344-17.717 25.08-23.661 26.283-5.945 1.204-18.093 8.937-18.093 8.937z" fill="none" stroke="#231f20" stroke-width="3.77937218" stroke-miterlimit="3.864"/>
  <path d="M554.596 268.665s.693 8.208.43 12.314c-.265 4.106-.8 9.221-.8 9.221M564.41 288.145s-4.314 9.41-5.7 11.224c-1.386 1.814-8.766 9.598-8.766 9.598M565.72 304.004s-6.608 9.592-10.152 10.473c-3.547.883-8.13 3.126-8.13 3.126M560.952 322.18c-2.16-.93-15.19 3.257-15.19 3.257M508.512 460.201l27.023-11.229M454.93 505.553s-7.169 8.446-9.246 11.167c-2.077 2.721-6.292 10.772-6.292 10.772M446.263 494.628s-6.315 4.51-10.234 7.759c-3.917 3.25-6.688 6.877-6.688 6.877M410.697 462.44c-2.21 4.773-9.269 14.957-9.269 14.957M361.615 302.005l-.422 9.012M366.973 303.447c1.172 5.7 1.444 13.805 1.444 13.805M337.492 289.328c-3.677 2.935-11.216 14.687-11.216 14.687" fill="none" stroke="#231f20" stroke-width="1.13383832" stroke-miterlimit="3.864"/>
  <path d="M315.008 229.019l3.143 3.118M302.556 220.228l2.375 2.53M289.388 215.196l2.375 2.53M334.377 397.91l1.438 2.533M342.261 393.881l1.575 2.639M350.632 390.443l1.575 2.637" fill="none" stroke="#231f20" stroke-width="3.77937218" stroke-miterlimit="3.864"/>
  <path d="M568.473 425.687s1.084 3.656 1.112 5.872c.028 2.217 1.326 8.237 1.326 8.237s.274-5.47 1.609-7.925c1.344-2.467 2.563-7.051 2.563-7.051M579.441 408.04l-3.349-7.13s-.461-4.913 1.767-4.687c2.009.205 3.393 2.538 2.91 3.63-.482 1.094-2.841 4.196-2.841 4.196l6.613-7.294M579.279 389.107l2.028 2.624 2.025 1.545" fill="none" stroke="#231f20" stroke-width="1.13383832" stroke-linecap="round" stroke-miterlimit="3.864"/>
  <path d="M582.524 377.219s-1.828 4.233.448 6.322c2.275 2.088 3.97-.133 4.375-1.584.404-1.45-.382-4.566-1.322-5.637-.941-1.07-3.501.899-3.501.899z" fill="none" stroke="#231f20" stroke-width="1.13383832" stroke-miterlimit="3.864"/>
  <path d="M586.267 360.27s-.394 2.87-1.528 4.818c-1.136 1.947-1.548 5.199-1.548 5.199M584.833 366.37l3.707 3.43" fill="none" stroke="#231f20" stroke-width="1.13383832" stroke-linecap="round" stroke-miterlimit="3.864"/>
  <path d="M574.281 420.063s2.332-1.848 2.763-3.267c.43-1.417.775-3.979.01-4.563-.763-.582-1.853-.742-2.9-.601-1.049.14-1.522.584-1.626 2.656-.104 2.072-.132 2.99.501 3.744.635.753 1.252 2.03 1.252 2.03z" fill="none" stroke="#231f20" stroke-width="1.13383832" stroke-miterlimit="3.864"/>
  <path d="M71.628 157.56s11.714-12.91 13.59-16.124c1.874-3.215 7.615-12.253 7.615-12.253s4.595 6.994 12.532 11.894 19.675 17.263 20.214 23.483c.54 6.22-5.936 14.272-10.852 16.907-4.916 2.636-20.868-7.75-20.868-7.75M111.614 108.112s23.047 27.67 31.73 29.472c7.31 1.517 11.86-.285 20.181-8.13 6.082-5.733 6.408-16.729 1.726-24.369-4.682-7.642-21.24-25.374-21.24-25.374M164.875 63.576s19.588-13.053 26.581-13.003c6.993.051 19.856 7.755 23.147 13.3 5.644 9.511 2.332 21.782-2.355 26.396-4.687 4.616-20.968 15.795-20.968 15.795" fill="none" stroke="#231f20" stroke-width="9.44856378" stroke-linecap="round" stroke-linejoin="round" stroke-miterlimit="3.864"/>
  <path d="M175.095 61.19s6.416 17.283 9.282 21.217c2.868 3.932 11.819 17.22 11.819 17.22M261.917 23.593s-15.84 5.103-18.576 11.727c-2.734 6.624-10.217 17.812-1.268 27.55 8.951 9.74 25.14 6.877 30.23 5.537 5.088-1.34 15.958-11.688 16.009-18.682.053-7.326-7.564-17.546-12.141-21.533-5.778-5.03-14.254-4.599-14.254-4.599zM305.48 17.141s14.37 25.76 17.37 30.956c3.002 5.198 5.625 12.491 5.625 12.491s14.238-24.04 15.918-26.241c1.682-2.202 8.97-20.118 8.97-20.118M405.04 25.601c-1.428-.134-10.444-2.19-14.585-3.612-4.143-1.421-15.863-2.494-15.863-2.494s-.813 23.685-1.879 30.485c-1.065 6.8-2.585 15.97-2.585 15.97s8.952.7 15.047.58c6.474-.13 14.12 2.443 14.12 2.443M375.281 44.244l23.31 3.579M441.703 41.432s-5.424 16.31-7.666 19.245c-2.24 2.935-8.216 17.602-8.216 17.602" fill="none" stroke="#231f20" stroke-width="9.44856378" stroke-linecap="round" stroke-linejoin="round" stroke-miterlimit="3.864"/>
  <path d="M437.439 31.723s5.924 1.358 13.408 5.332c7.482 3.972 11.522 11.198 10.353 15.013-1.172 3.815-2.468 8.307-9.557 9.215-3.236.413-15.635-.904-15.635-.904s5.6 4.918 8.061 8.54c2.46 3.622 8.263 9.797 8.976 12.664.715 2.869 3.668 7.449 3.668 7.449M498.657 61.57s-11.042 18.346-14.048 20.76c-3.005 2.414-10.581 14.697-11.636 14.474-1.053-.225 6.751 3.412 10.42 6.213 3.668 2.803 11.971 7.983 11.971 7.983M487.937 80.11l17.411 11.734M500.013 59.965s8.602 4.902 11.99 8.07c3.388 3.169 9.425 6.654 9.425 6.654M547.145 92.316l-31.437 34.8M535.057 145.377l31.719-34.688s-3.42 29.947-3.524 35.247c-.113 5.905-1.173 28.273-1.173 28.273l36.237-31.565M603.821 194.41s4.086 5.38 5.675 10.142c1.59 4.763 3.319 12.47 3.319 12.47M647.436 245.787s-.019 2.309-2.133 1.274M603.613 257.292s21.511-.541 26.754 1.721c5.241 2.262 22.934 8.16 22.934 8.16s-20.76 12.731-25.745 15.375c-4.987 2.644-18.597 14.383-18.597 14.383M659.355 295.155l-1.962 2.568M660.13 313.235s.246 11.929.593 14.517c.346 2.588-.6 5.35-.6 5.35s-19.751.598-25.323 1.051c-5.575.452-16.19 2.863-16.19 2.863s1.435-14.13-.205-16.545c-1.641-2.415-1.06-10.103-1.06-10.103M638.659 313.805l2.002 19.598M622.83 377.537s-12.171 5.288-14.849 12.599c-2.678 7.31 2.454 18.843 6.702 23.25 4.248 4.405 16.02 8.167 23.814 7.087 7.795-1.078 17.594-12.308 16.775-18.16-.82-5.853-5.201-16.17-7.684-17.484-2.48-1.313-7.396-3.325-7.396-3.325l20.737-1.132M597.383 432.824s22.394 11.232 26.71 13.947c4.316 2.714 17.222 8.702 17.222 8.702s-26.064 6.679-29.242 7.799c-3.18 1.12-31.076 7.82-31.076 7.82s19.72 10.933 25.136 14.488c5.416 3.556 15.208 7.55 15.208 7.55M568.29 487.65s15.033 10.9 18.334 13.42c3.301 2.522 21.183 15.017 21.183 15.017M565.687 509.543s-13.935-3.614-17.432 8.3c-1.4 4.77 4.245 13.374 9.661 15.572 7.936 3.221 16.344-9.07 22.457-7.948 6.115 1.12 9.666 7.961 10.186 11.844.521 3.881-2.49 12.493-9.24 15.14-4.568 1.792-12.4-1.34-12.4-1.34M529.167 535.405s17.248 23.042 19.254 25.736c2.008 2.695 8.218 12.144 8.218 12.144l-25.11-2.27s-13.656-2.818-17.518-4.604c-3.862-1.788-16.328-6.082-16.328-6.082s6.88 12.287 9.941 15.206c3.061 2.919 18.92 24.903 18.92 24.903M482.901 571.237s15.61 21.515 15.83 26.672c.306 7.21-1.214 16.322-4.59 20.736-5.608 7.338-19.137 8.444-21.561 7.817-2.427-.627-11.541-8.942-15.856-16.303-4.315-7.362-8.627-22.334-8.627-22.334M461.281 582.73l2.048 2.727M470.17 577.257l2.287 2.332M448.387 639.41s-15.636-27.686-17.103-28.807c-1.468-1.12-9.44-13.662-9.44-13.662s1.43 18.063.55 23.779c-.88 5.717-5.526 27.852-5.526 27.852l-14.207-21.95-10.945-19.975s-.488 18.213-1.573 22.676c-1.084 4.462-4.154 26.056-4.154 26.056M356.783 634.816l-20.147.358M274.501 604.48s15.275-1.03 23.395 8.079c5.076 5.691 5.712 20.073 2.619 26.486-3.094 6.412-12.794 13.963-18.463 13.7-5.67-.265-23.035-5.281-23.035-5.281M283.353 605.581l-13.7 41.23M259.257 598.647s-7.224 18.862-8.848 21.749c-1.625 2.888-9.116 21.436-9.116 21.436l-10.697-29.912-6.488-24.144s-14.136 29.805-15.17 31.919c-1.035 2.114-5.626 10.38-5.626 10.38M189.647 622.487l3.377-36.522s3.793-13.168 1.92-14.6c-1.873-1.43-8.719 5.924-11.867 7.004-3.149 1.08-16.529 10.152-19.03 11.146-2.502.994-13.822 7.762-13.822 7.762" fill="none" stroke="#231f20" stroke-width="9.44856378" stroke-linecap="round" stroke-linejoin="round" stroke-miterlimit="3.864"/>
  <path d="M167.108 587.787s6.427 6.854 9.728 9.377c3.303 2.523 15.857 8.921 15.857 8.921M153.104 537.017s-11.613 12.164-13.295 14.364c-1.681 2.202-11.765 11.015-12.268 12.435-.505 1.421-11.355 7.768-11.355 7.768s10.61 6.98 13.443 9.724c3.117 3.017 9.326 8.208 9.326 8.208M84.516 537.777s18.707-12.596 21.209-13.59c2.502-.994 14.59-14.535 14.59-14.535l4.127-3.883s5.365 5.906 7.2 11.951c1.833 6.047.95 11.763-1.968 14.823-2.919 3.062-8.887 5.474-12.382 3.966-3.495-1.508-8.284-7.488-8.284-7.488s-2.224 3.592-1.665 7.504c.56 3.911.643 12.168.256 14.198-.388 2.026-2.453 11.344-2.453 11.344M114.237 496.235s-7.57-9.266-8.843-11.4c-1.274-2.136-2.97-9.883-2.97-9.883s-16.21 9.817-18.258 11.739c-2.048 1.92-8.945 4.784-10.743 6.378-1.798 1.594-14.426 8.539-14.426 8.539s5.7 5.25 8.161 8.872c2.461 3.623 7.483 14.324 7.483 14.324M83.585 489.732l10.347 15.516M50.315 483.615s23.737-18.07 24.858-19.538c1.12-1.466 14.482-12.88 14.482-12.88s-15.875-.505-19.827.023c-3.953.53-16.632-.443-19.026-1.11-2.394-.666-12.73 1.377-12.73 1.377l15.922-14.683 12.21-9.904 9.603-7.25s-12.083 1.29-15.772.795c-3.688-.493-18.9-.43-18.9-.43l-19.026-1.11M14.986 333.517s20.608 5.802 25.33 8.826c4.721 3.025 23.92 10.074 22.78 9.205-1.14-.872-11.38 6.535-17.05 6.27-5.668-.263-27.935 11.318-27.935 11.318s13.164 1.859 19.547 4.99c6.384 3.133 30.459 7.518 30.459 7.518s-16.266 9.13-22.633 11.3c-6.367 2.17-24.557 12.217-24.557 12.217M22.17 263.7c1.96 2.079 18.935 12.719 19.843 14.573.906 1.855 27.526 22.764 24.764 21.818-2.761-.948-16.604 1.965-21.279 4.204-4.675 2.236-28.379 12.657-29.983 13.237" fill="none" stroke="#231f20" stroke-width="9.44856378" stroke-linecap="round" stroke-linejoin="round" stroke-miterlimit="3.864"/>
  <path d="M39.597 279.915c-1.854.906-4.67 9.917-6.177 13.413-1.509 3.495.169 13.55.169 13.55M68.349 205.597c-1.42-.504-3.259 10.352-4.747 11.54-1.487 1.187-3.745 14.038-3.745 14.038" fill="none" stroke="#231f20" stroke-width="9.44856378" stroke-linecap="round" stroke-linejoin="round" stroke-miterlimit="3.864"/>
</svg>
